<svg viewBox="0 0 219 18" xmlns="http://www.w3.org/2000/svg">
  <path fill="#00D1FF" d="M21.134 8.562c-.934-.976-2.056-1.464-3.367-1.464H4.768a.833.833 0 0 1-.622-.27.91.91 0 0 1-.26-.656V5.045a.89.89 0 0 1 .26-.64c.174-.18.38-.27.622-.27h16.76a.133.133 0 0 0 .102-.042.132.132 0 0 0 .04-.092V.635c0-.045-.014-.079-.04-.101A.153.153 0 0 0 21.528.5H4.768C3.446.5 2.321.988 1.393 1.965.464 2.94 0 4.119 0 5.499v.219c0 1.391.464 2.575 1.393 3.551.928.976 2.053 1.464 3.375 1.464h12.999c.23 0 .433.087.605.261.174.174.26.39.26.649v1.127a.882.882 0 0 1-.26.648.829.829 0 0 1-.605.261H.992a.116.116 0 0 0-.087.043.154.154 0 0 0-.04.11v3.365c0 .034.014.065.04.093a.117.117 0 0 0 .087.042h16.775c1.311 0 2.433-.49 3.367-1.473.934-.982 1.401-2.162 1.401-3.543v-.219c0-1.38-.467-2.559-1.4-3.535ZM49.354.5h-3.635a.13.13 0 0 0-.087.034c-.026.022-.04.056-.04.1V4.91c0 .37-.178.65-.534.841l-7.254 3.215-7.255-3.215c-.357-.19-.535-.47-.535-.841V.635c0-.045-.01-.079-.031-.101C29.96.51 29.93.5 29.888.5h-3.635a.13.13 0 0 0-.087.034c-.026.022-.039.056-.039.1v4.898c0 .73.189 1.398.567 2.003a3.434 3.434 0 0 0 1.542 1.347l7.616 3.416v4.882c0 .045.014.081.04.11.026.027.06.041.102.041h3.635c.031 0 .06-.014.086-.042a.153.153 0 0 0 .04-.11V12.3l7.616-3.4a3.559 3.559 0 0 0 1.542-1.355c.378-.6.567-1.265.567-1.995V.635c0-.045-.013-.079-.04-.101A.131.131 0 0 0 49.354.5ZM76.356.5h-3.635c-.042 0-.074.014-.095.042a.15.15 0 0 0-.031.093v13.06h-1.526c-.284 0-.525-.134-.724-.403l-7.05-11.025C62.539 1.134 61.495.545 60.163.5H54.09a.134.134 0 0 0-.102.042.133.133 0 0 0-.04.093v16.561c0 .034.013.065.04.093.026.028.06.042.102.042h3.635c.032 0 .06-.014.087-.042a.132.132 0 0 0 .04-.093V4.136h1.526c.283 0 .524.14.723.42l7.05 11.025c.756 1.133 1.8 1.716 3.132 1.75h6.074c.042 0 .074-.014.095-.042a.152.152 0 0 0 .031-.093V.636a.153.153 0 0 0-.031-.093C76.429.514 76.398.5 76.356.5ZM102.63.5H80.363c-.042 0-.074.014-.094.042a.15.15 0 0 0-.032.093V4c0 .033.01.065.032.092.02.028.052.042.094.042h9.19v13.062c0 .033.01.064.032.092.02.028.052.042.094.042h3.635c.042 0 .074-.014.095-.042a.151.151 0 0 0 .031-.093V4.136h9.19a.133.133 0 0 0 .102-.043.133.133 0 0 0 .039-.092V.635a.133.133 0 0 0-.039-.093.131.131 0 0 0-.102-.042ZM129.631.5h-3.635a.116.116 0 0 0-.086.042.13.13 0 0 0-.04.093v6.463h-14.729V.635a.13.13 0 0 0-.04-.093.134.134 0 0 0-.102-.042h-3.635a.116.116 0 0 0-.086.042.13.13 0 0 0-.04.093v16.561a.13.13 0 0 0 .04.093.116.116 0 0 0 .086.042h3.635a.132.132 0 0 0 .102-.042.13.13 0 0 0 .04-.093v-6.463h14.729v6.463a.13.13 0 0 0 .04.093.116.116 0 0 0 .086.042h3.635a.132.132 0 0 0 .102-.042.13.13 0 0 0 .04-.093V.636a.135.135 0 0 0-.04-.093.133.133 0 0 0-.102-.042ZM156.537.5h-17.641c-1.312 0-2.434.488-3.367 1.464-.934.976-1.401 2.155-1.401 3.535v6.816c0 1.392.467 2.576 1.401 3.552.933.976 2.055 1.464 3.367 1.464h17.641c.031 0 .06-.014.086-.042a.134.134 0 0 0 .04-.092V13.83c0-.045-.014-.079-.04-.101a.13.13 0 0 0-.086-.034h-17.641a.81.81 0 0 1-.614-.269.904.904 0 0 1-.252-.64v-2.054h18.495c.042 0 .074-.014.095-.042a.157.157 0 0 0 .031-.092V7.233c0-.045-.011-.079-.031-.101-.021-.023-.053-.034-.095-.034H138.03V5.045c0-.247.084-.46.252-.64a.81.81 0 0 1 .614-.27h17.641c.031 0 .06-.014.086-.042a.134.134 0 0 0 .04-.092V.635a.135.135 0 0 0-.04-.093.118.118 0 0 0-.086-.042ZM183.41.5h-22.268c-.042 0-.073.014-.094.042a.15.15 0 0 0-.031.093V4c0 .033.01.065.031.092.021.028.052.042.094.042h9.19v13.062a.15.15 0 0 0 .032.092c.021.028.052.042.094.042h3.635c.042 0 .074-.014.095-.042a.15.15 0 0 0 .031-.093V4.136h9.19a.133.133 0 0 0 .102-.043.13.13 0 0 0 .04-.092V.635a.13.13 0 0 0-.04-.093.13.13 0 0 0-.101-.042ZM191.874.534C191.853.51 191.821.5 191.78.5h-3.636c-.042 0-.073.011-.094.034-.021.022-.031.056-.031.1v16.563c0 .033.01.064.031.092.021.028.052.042.094.042h3.636c.041 0 .073-.014.094-.042a.15.15 0 0 0 .031-.093V.636c0-.045-.01-.079-.031-.101ZM201.91 4.59a.726.726 0 0 0-.582-.287h-4.721a.133.133 0 0 1-.102-.042.133.133 0 0 1-.039-.092V.803c0-.034.013-.065.039-.093a.134.134 0 0 1 .102-.042h4.989c1.259 0 2.344.544 3.257 1.633l1.212 1.565-2.36 3.046-1.795-2.322Zm8.718-2.306c.913-1.077 2.004-1.616 3.273-1.616h4.973c.042 0 .073.011.095.033.02.023.031.057.031.102v3.366a.156.156 0 0 1-.031.092c-.022.028-.053.042-.095.042h-4.721a.726.726 0 0 0-.582.287l-3.478 4.477 3.494 4.51c.157.18.346.27.566.27h4.721c.042 0 .073.014.095.042.02.028.031.065.031.11v3.365a.156.156 0 0 1-.031.093c-.022.028-.053.042-.095.042h-4.972c-1.27 0-2.356-.544-3.258-1.633l-2.895-3.736-2.896 3.736c-.913 1.089-2.004 1.633-3.273 1.633h-4.973c-.042 0-.073-.014-.094-.042a.178.178 0 0 1-.032-.11v-3.366c0-.034.011-.064.032-.092.021-.029.052-.043.094-.043h4.721c.22 0 .414-.095.582-.286l3.415-4.41 5.303-6.866Z" />
</svg>
